<?xml version="1.0" encoding="utf-8" standalone="no"?>
<!DOCTYPE svg PUBLIC "-//W3C//DTD SVG 1.1//EN"
  "http://www.w3.org/Graphics/SVG/1.1/DTD/svg11.dtd">
<svg xmlns:xlink="http://www.w3.org/1999/xlink" width="504pt" height="360pt" viewBox="0 0 504 360" xmlns="http://www.w3.org/2000/svg" version="1.1">
 <metadata>
  <rdf:RDF xmlns:dc="http://purl.org/dc/elements/1.1/" xmlns:cc="http://creativecommons.org/ns#" xmlns:rdf="http://www.w3.org/1999/02/22-rdf-syntax-ns#">
   <cc:Work>
    <dc:type rdf:resource="http://purl.org/dc/dcmitype/StillImage"/>
    <dc:date>2025-09-16T12:23:40.444001</dc:date>
    <dc:format>image/svg+xml</dc:format>
    <dc:creator>
     <cc:Agent>
      <dc:title>Matplotlib v3.10.0, https://matplotlib.org/</dc:title>
     </cc:Agent>
    </dc:creator>
   </cc:Work>
  </rdf:RDF>
 </metadata>
 <defs>
  <style type="text/css">*{stroke-linejoin: round; stroke-linecap: butt}</style>
 </defs>
 <g id="figure_1">
  <g id="patch_1">
   <path d="M 0 360 
L 504 360 
L 504 0 
L 0 0 
z
" style="fill: #ffffff"/>
  </g>
  <g id="axes_1">
   <g id="patch_2">
    <path d="M 14.3 345.7 
L 493.2 345.7 
L 493.2 10.8 
L 14.3 10.8 
z
" style="fill: #ffffff"/>
   </g>
   <g id="patch_3">
    <path d="M 36.068182 345.7 
L 57.629427 345.7 
L 57.629427 307.039105 
L 36.068182 307.039105 
z
" clip-path="url(#p311820c358)" style="fill: #008000; fill-opacity: 0.35"/>
   </g>
   <g id="patch_4">
    <path d="M 57.629427 345.7 
L 79.190671 345.7 
L 79.190671 191.056421 
L 57.629427 191.056421 
z
" clip-path="url(#p311820c358)" style="fill: #008000; fill-opacity: 0.35"/>
   </g>
   <g id="patch_5">
    <path d="M 79.190671 345.7 
L 100.751916 345.7 
L 100.751916 200.721645 
L 79.190671 200.721645 
z
" clip-path="url(#p311820c358)" style="fill: #008000; fill-opacity: 0.35"/>
   </g>
   <g id="patch_6">
    <path d="M 100.751916 345.7 
L 122.313161 345.7 
L 122.313161 26.747619 
L 100.751916 26.747619 
z
" clip-path="url(#p311820c358)" style="fill: #008000; fill-opacity: 0.35"/>
   </g>
   <g id="patch_7">
    <path d="M 122.313161 345.7 
L 143.874406 345.7 
L 143.874406 142.730303 
L 122.313161 142.730303 
z
" clip-path="url(#p311820c358)" style="fill: #008000; fill-opacity: 0.35"/>
   </g>
   <g id="patch_8">
    <path d="M 143.874406 345.7 
L 165.43565 345.7 
L 165.43565 249.047763 
L 143.874406 249.047763 
z
" clip-path="url(#p311820c358)" style="fill: #008000; fill-opacity: 0.35"/>
   </g>
   <g id="patch_9">
    <path d="M 165.43565 345.7 
L 186.996895 345.7 
L 186.996895 152.395527 
L 165.43565 152.395527 
z
" clip-path="url(#p311820c358)" style="fill: #008000; fill-opacity: 0.35"/>
   </g>
   <g id="patch_10">
    <path d="M 186.996895 345.7 
L 208.55814 345.7 
L 208.55814 249.047763 
L 186.996895 249.047763 
z
" clip-path="url(#p311820c358)" style="fill: #008000; fill-opacity: 0.35"/>
   </g>
   <g id="patch_11">
    <path d="M 208.55814 345.7 
L 230.119385 345.7 
L 230.119385 249.047763 
L 208.55814 249.047763 
z
" clip-path="url(#p311820c358)" style="fill: #008000; fill-opacity: 0.35"/>
   </g>
   <g id="patch_12">
    <path d="M 230.119385 345.7 
L 251.68063 345.7 
L 251.68063 326.369553 
L 230.119385 326.369553 
z
" clip-path="url(#p311820c358)" style="fill: #008000; fill-opacity: 0.35"/>
   </g>
   <g id="patch_13">
    <path d="M 251.68063 345.7 
L 273.241874 345.7 
L 273.241874 278.043434 
L 251.68063 278.043434 
z
" clip-path="url(#p311820c358)" style="fill: #008000; fill-opacity: 0.35"/>
   </g>
   <g id="patch_14">
    <path d="M 273.241874 345.7 
L 294.803119 345.7 
L 294.803119 326.369553 
L 273.241874 326.369553 
z
" clip-path="url(#p311820c358)" style="fill: #008000; fill-opacity: 0.35"/>
   </g>
   <g id="patch_15">
    <path d="M 94.149994 345.7 
L 125.590146 345.7 
L 125.590146 283.559838 
L 94.149994 283.559838 
z
" clip-path="url(#p311820c358)" style="fill: #ff0000; fill-opacity: 0.35"/>
   </g>
   <g id="patch_16">
    <path d="M 125.590146 345.7 
L 157.030298 345.7 
L 157.030298 295.987871 
L 125.590146 295.987871 
z
" clip-path="url(#p311820c358)" style="fill: #ff0000; fill-opacity: 0.35"/>
   </g>
   <g id="patch_17">
    <path d="M 157.030298 345.7 
L 188.47045 345.7 
L 188.47045 184.13558 
L 157.030298 184.13558 
z
" clip-path="url(#p311820c358)" style="fill: #ff0000; fill-opacity: 0.35"/>
   </g>
   <g id="patch_18">
    <path d="M 188.47045 345.7 
L 219.910602 345.7 
L 219.910602 190.349596 
L 188.47045 190.349596 
z
" clip-path="url(#p311820c358)" style="fill: #ff0000; fill-opacity: 0.35"/>
   </g>
   <g id="patch_19">
    <path d="M 219.910602 345.7 
L 251.350754 345.7 
L 251.350754 283.559838 
L 219.910602 283.559838 
z
" clip-path="url(#p311820c358)" style="fill: #ff0000; fill-opacity: 0.35"/>
   </g>
   <g id="patch_20">
    <path d="M 251.350754 345.7 
L 282.790906 345.7 
L 282.790906 140.637467 
L 251.350754 140.637467 
z
" clip-path="url(#p311820c358)" style="fill: #ff0000; fill-opacity: 0.35"/>
   </g>
   <g id="patch_21">
    <path d="M 282.790906 345.7 
L 314.231058 345.7 
L 314.231058 171.707548 
L 282.790906 171.707548 
z
" clip-path="url(#p311820c358)" style="fill: #ff0000; fill-opacity: 0.35"/>
   </g>
   <g id="patch_22">
    <path d="M 314.231058 345.7 
L 345.67121 345.7 
L 345.67121 345.7 
L 314.231058 345.7 
z
" clip-path="url(#p311820c358)" style="fill: #ff0000; fill-opacity: 0.35"/>
   </g>
   <g id="patch_23">
    <path d="M 345.67121 345.7 
L 377.111362 345.7 
L 377.111362 345.7 
L 345.67121 345.7 
z
" clip-path="url(#p311820c358)" style="fill: #ff0000; fill-opacity: 0.35"/>
   </g>
   <g id="patch_24">
    <path d="M 377.111362 345.7 
L 408.551514 345.7 
L 408.551514 295.987871 
L 377.111362 295.987871 
z
" clip-path="url(#p311820c358)" style="fill: #ff0000; fill-opacity: 0.35"/>
   </g>
   <g id="patch_25">
    <path d="M 408.551514 345.7 
L 439.991666 345.7 
L 439.991666 327.057952 
L 408.551514 327.057952 
z
" clip-path="url(#p311820c358)" style="fill: #ff0000; fill-opacity: 0.35"/>
   </g>
   <g id="patch_26">
    <path d="M 439.991666 345.7 
L 471.431818 345.7 
L 471.431818 289.773855 
L 439.991666 289.773855 
z
" clip-path="url(#p311820c358)" style="fill: #ff0000; fill-opacity: 0.35"/>
   </g>
   <g id="matplotlib.axis_1">
    <g id="xtick_1">
     <g id="line2d_1">
      <defs>
       <path id="me8961375a0" d="M 0 0 
L 0 3.5 
" style="stroke: #000000; stroke-width: 0.8"/>
      </defs>
      <g>
       <use xlink:href="#me8961375a0" x="50.73391" y="345.7" style="stroke: #000000; stroke-width: 0.8"/>
      </g>
     </g>
    </g>
    <g id="xtick_2">
     <g id="line2d_2">
      <g>
       <use xlink:href="#me8961375a0" x="152.218411" y="345.7" style="stroke: #000000; stroke-width: 0.8"/>
      </g>
     </g>
    </g>
    <g id="xtick_3">
     <g id="line2d_3">
      <g>
       <use xlink:href="#me8961375a0" x="253.702911" y="345.7" style="stroke: #000000; stroke-width: 0.8"/>
      </g>
     </g>
    </g>
    <g id="xtick_4">
     <g id="line2d_4">
      <g>
       <use xlink:href="#me8961375a0" x="355.187412" y="345.7" style="stroke: #000000; stroke-width: 0.8"/>
      </g>
     </g>
    </g>
    <g id="xtick_5">
     <g id="line2d_5">
      <g>
       <use xlink:href="#me8961375a0" x="456.671912" y="345.7" style="stroke: #000000; stroke-width: 0.8"/>
      </g>
     </g>
    </g>
   </g>
   <g id="matplotlib.axis_2">
    <g id="ytick_1">
     <g id="line2d_6">
      <defs>
       <path id="mc227cb6a11" d="M 0 0 
L -3.5 0 
" style="stroke: #000000; stroke-width: 0.8"/>
      </defs>
      <g>
       <use xlink:href="#mc227cb6a11" x="14.3" y="345.7" style="stroke: #000000; stroke-width: 0.8"/>
      </g>
     </g>
    </g>
    <g id="ytick_2">
     <g id="line2d_7">
      <g>
       <use xlink:href="#mc227cb6a11" x="14.3" y="268.69529" style="stroke: #000000; stroke-width: 0.8"/>
      </g>
     </g>
    </g>
    <g id="ytick_3">
     <g id="line2d_8">
      <g>
       <use xlink:href="#mc227cb6a11" x="14.3" y="191.690581" style="stroke: #000000; stroke-width: 0.8"/>
      </g>
     </g>
    </g>
    <g id="ytick_4">
     <g id="line2d_9">
      <g>
       <use xlink:href="#mc227cb6a11" x="14.3" y="114.685871" style="stroke: #000000; stroke-width: 0.8"/>
      </g>
     </g>
    </g>
    <g id="ytick_5">
     <g id="line2d_10">
      <g>
       <use xlink:href="#mc227cb6a11" x="14.3" y="37.681162" style="stroke: #000000; stroke-width: 0.8"/>
      </g>
     </g>
    </g>
   </g>
   <g id="line2d_11">
    <path d="M 36.068182 305.951729 
L 38.668533 300.149897 
L 42.56906 290.836495 
L 47.769762 277.668395 
L 58.171166 251.036425 
L 63.371869 238.347031 
L 76.373624 207.129699 
L 80.274151 196.964737 
L 84.174678 186.10457 
L 88.075204 174.578212 
L 98.476609 142.998933 
L 101.07696 135.814689 
L 103.677311 129.331263 
L 106.277662 123.760358 
L 107.577838 121.37804 
L 108.878013 119.293187 
L 110.178189 117.524246 
L 111.478365 116.086753 
L 112.77854 114.993022 
L 114.078716 114.251874 
L 115.378891 113.86843 
L 116.679067 113.843964 
L 117.979242 114.175819 
L 119.279418 114.857402 
L 120.579593 115.878237 
L 121.879769 117.224099 
L 123.179945 118.877211 
L 124.48012 120.816517 
L 125.780296 123.018005 
L 128.380647 128.099092 
L 130.980998 133.885207 
L 134.881525 143.331366 
L 140.082227 156.067208 
L 142.682578 162.024409 
L 145.282929 167.508103 
L 147.88328 172.435972 
L 150.483631 176.782352 
L 153.083983 180.574668 
L 155.684334 183.885339 
L 158.284685 186.820084 
L 162.185212 190.792415 
L 168.686089 197.285673 
L 172.586616 201.598274 
L 176.487143 206.370569 
L 180.387669 211.539232 
L 194.689601 231.065498 
L 202.490654 240.961035 
L 207.691356 247.709156 
L 211.591883 253.127507 
L 215.49241 258.944878 
L 220.693112 267.233508 
L 228.494165 279.82953 
L 231.094516 283.727302 
L 233.694868 287.327587 
L 236.295219 290.559411 
L 238.89557 293.372573 
L 241.495921 295.741874 
L 244.096272 297.669086 
L 246.696623 299.182581 
L 249.296974 300.33476 
L 251.897325 301.197611 
L 255.797852 302.139099 
L 262.29873 303.536181 
L 264.899081 304.279958 
L 267.499432 305.226067 
L 270.099783 306.413839 
L 272.700135 307.862301 
L 275.300486 309.570637 
L 277.900837 311.520064 
L 281.801363 314.819325 
L 287.002066 319.665395 
L 294.803119 327.027751 
L 294.803119 327.027751 
" clip-path="url(#p311820c358)" style="fill: none; stroke: #008000; stroke-width: 1.5; stroke-linecap: square"/>
   </g>
   <g id="line2d_12">
    <path d="M 94.149994 315.049088 
L 99.83766 311.094579 
L 105.525326 306.839148 
L 109.317103 303.768833 
L 113.10888 300.458886 
L 116.900657 296.863784 
L 120.692434 292.942712 
L 124.484211 288.664202 
L 128.275988 284.010594 
L 132.067765 278.981928 
L 135.859543 273.598884 
L 139.65132 267.904498 
L 145.338985 258.928709 
L 156.714317 240.652691 
L 160.506094 234.912538 
L 164.297871 229.566372 
L 168.089648 224.738474 
L 169.985537 222.55412 
L 171.881425 220.539334 
L 173.777314 218.704734 
L 175.673202 217.059325 
L 177.569091 215.61035 
L 179.46498 214.363155 
L 181.360868 213.321084 
L 183.256757 212.485385 
L 185.152645 211.855154 
L 187.048534 211.427291 
L 188.944422 211.19649 
L 190.840311 211.155261 
L 192.736199 211.293966 
L 194.632088 211.600897 
L 196.527977 212.062376 
L 198.423865 212.662878 
L 202.215642 214.210608 
L 206.007419 216.089569 
L 215.486862 221.091155 
L 219.278639 222.743935 
L 221.174528 223.41154 
L 223.070416 223.948802 
L 224.966305 224.339605 
L 226.862194 224.569968 
L 228.758082 224.628301 
L 230.653971 224.505635 
L 232.549859 224.195823 
L 234.445748 223.695707 
L 236.341636 223.005245 
L 238.237525 222.127603 
L 240.133414 221.069195 
L 242.029302 219.839681 
L 243.925191 218.451916 
L 247.716968 215.268352 
L 251.508745 211.680109 
L 260.988188 202.328608 
L 264.779965 199.071064 
L 266.675853 197.670634 
L 268.571742 196.462207 
L 270.467631 195.473721 
L 272.363519 194.731083 
L 274.259408 194.257774 
L 276.155296 194.074495 
L 278.051185 194.198843 
L 279.947073 194.645048 
L 281.842962 195.423758 
L 283.73885 196.541876 
L 285.634739 198.002471 
L 287.530628 199.804734 
L 289.426516 201.944009 
L 291.322405 204.411876 
L 293.218293 207.196296 
L 295.114182 210.28181 
L 297.01007 213.649789 
L 300.801848 221.144564 
L 304.593625 229.480207 
L 308.385402 238.427682 
L 315.968956 257.176336 
L 321.656622 271.035929 
L 325.448399 279.773061 
L 329.240176 287.901369 
L 333.031953 295.284233 
L 336.82373 301.823889 
L 338.719619 304.757647 
L 340.615507 307.4615 
L 342.511396 309.933864 
L 344.407284 312.175271 
L 346.303173 314.188226 
L 348.199062 315.977062 
L 350.09495 317.54778 
L 351.990839 318.907883 
L 353.886727 320.066202 
L 355.782616 321.032722 
L 357.678504 321.818407 
L 359.574393 322.435029 
L 361.470282 322.894993 
L 363.36617 323.211174 
L 365.262059 323.396758 
L 369.053836 323.429496 
L 372.845613 323.099191 
L 376.63739 322.507727 
L 382.325056 321.333772 
L 393.700387 318.858157 
L 399.388053 317.879224 
L 405.075718 317.164428 
L 410.763384 316.704378 
L 416.45105 316.450046 
L 424.034604 316.320262 
L 435.409935 316.358787 
L 442.99349 316.547792 
L 448.681155 316.864062 
L 454.368821 317.42074 
L 458.160598 317.96571 
L 461.952375 318.672491 
L 465.744152 319.553256 
L 469.53593 320.611906 
L 471.431818 321.206681 
L 471.431818 321.206681 
" clip-path="url(#p311820c358)" style="fill: none; stroke: #ff0000; stroke-width: 1.5; stroke-linecap: square"/>
   </g>
   <g id="patch_27">
    <path d="M 14.3 345.7 
L 14.3 10.8 
" style="fill: none; stroke: #000000; stroke-width: 0.8; stroke-linejoin: miter; stroke-linecap: square"/>
   </g>
   <g id="patch_28">
    <path d="M 493.2 345.7 
L 493.2 10.8 
" style="fill: none; stroke: #000000; stroke-width: 0.8; stroke-linejoin: miter; stroke-linecap: square"/>
   </g>
   <g id="patch_29">
    <path d="M 14.3 345.7 
L 493.2 345.7 
" style="fill: none; stroke: #000000; stroke-width: 0.8; stroke-linejoin: miter; stroke-linecap: square"/>
   </g>
   <g id="patch_30">
    <path d="M 14.3 10.8 
L 493.2 10.8 
" style="fill: none; stroke: #000000; stroke-width: 0.8; stroke-linejoin: miter; stroke-linecap: square"/>
   </g>
  </g>
 </g>
 <defs>
  <clipPath id="p311820c358">
   <rect x="14.3" y="10.8" width="478.9" height="334.9"/>
  </clipPath>
 </defs>
</svg>
